<svg xmlns="http://www.w3.org/2000/svg" xmlns:xlink="http://www.w3.org/1999/xlink" fill="none" version="1.1" width="16" height="16" viewBox="0 0 16 16"><defs><clipPath id="master_svg0_23_06421"><rect x="0" y="0" width="16" height="16" rx="3.3333334922790527"/></clipPath></defs><g><g clip-path="url(#master_svg0_23_06421)"><g><path d="M7.789811,10.197888046875L7.700691,10.465248046875L7.611571,10.732608046875Q7.458726,11.191138046875,7.800498,11.532918046875Q8.14227,11.874688046875,8.600806,11.721848046875L8.868167,11.632728046875L9.13553,11.543608046875L9.96192,11.268138046875L9.96194,11.268138046875Q10.374130000000001,11.130738046874999,10.51937,11.061518046875001Q10.777149999999999,10.938668046875,11.0023,10.763048046875Q11.12917,10.664098046875,11.43641,10.356858046875L11.43641,10.356848046875001L14.27683,7.516438046875L14.58579,7.207478046875Q15.09524,6.698028046875001,15.09524,5.977558046875Q15.09524,5.257080046875,14.58579,4.747628346875Q14.07634,4.238177046875,13.35586,4.238177046875Q12.635390000000001,4.238177046875,12.12594,4.747628346875L11.816980000000001,5.056588046875L8.976562,7.896998046875Q8.669323,8.204238046875,8.570366,8.331108046875Q8.394748,8.556268046875001,8.271899,8.814038046875Q8.202676,8.959288046874999,8.065275,9.371498046875L7.789811,10.197888046875ZM8.848393,10.735808046875L8.864474,10.730448046875L9.69087,10.454978046875L9.69088,10.454978046875Q10.05301,10.334268046875,10.15061,10.287748046875Q10.32384,10.205198046875001,10.47514,10.087178046875Q10.5604,10.020688046875,10.83032,9.750768046874999L13.15325,7.427838046874999Q12.77879,7.242408046875,12.434899999999999,6.898518046875Q12.09101,6.554628046875,11.90558,6.180168046875L9.58265,8.503098046875Q9.31273,8.773018046875,9.24623,8.858268046875Q9.12822,9.009578046875,9.04566,9.182798046875Q8.999144,9.280408046875,8.878432,9.642548046875L8.602968,10.468938046875L8.597608,10.485018046875L8.848393,10.735808046875ZM12.57278,5.512971046875Q12.66124,5.9126780468749995,13.04099,6.292428046875Q13.42074,6.6721780468750005,13.82044,6.760638046875L13.979700000000001,6.601388046875Q14.2381,6.342988046875,14.2381,5.977558046875Q14.2381,5.612120046875,13.979700000000001,5.353720046875Q13.72129,5.095319046875,13.35586,5.095319046875Q12.99043,5.095319046875,12.73203,5.353720046875L12.57278,5.512971046875Z" fill-rule="evenodd" fill="#939599" fill-opacity="1"/></g><g><path d="M5.368274253125,9.095319046875Q5.350792253125,9.096748046875,5.333251953125,9.096748046875Q5.290900653125,9.096748046875,5.249363153125,9.088486046875Q5.207825953125,9.080223046875,5.168697953125,9.064016046875Q5.129570953125,9.047809046875,5.094356953125,9.024280046875Q5.059142953125,9.000751046875,5.029195953125,8.970804046875Q4.999248953125,8.940857046875,4.975719953125,8.905643046875Q4.952190953125,8.870429046875,4.935983953125,8.831302046875Q4.919776953125,8.792174046875,4.911513953125,8.750636846875Q4.903251953125,8.709099346875,4.903251953125,8.666748046875Q4.903251953125,8.624396746875,4.911513953125,8.582859246875Q4.919776953125,8.541322046875,4.935983953125,8.502194046875Q4.952190953125,8.463067046875,4.975719953125,8.427853046875Q4.999248953125,8.392639046875,5.029195953125,8.362692046875Q5.059142953125,8.332745046875,5.094356953125,8.309216046875Q5.129570953125,8.285687046875,5.168697953125,8.269480046875Q5.207825953125,8.253273046875,5.249363153125,8.245010046875Q5.290900653125,8.236748046875,5.333251953125,8.236748046875Q5.350792253125,8.236748046875,5.368274253125,8.238177046875L6.964891953125,8.238177046875Q6.9823819531249995,8.236748046875,6.999921953125,8.236748046875Q7.042271953125,8.236748046875,7.083811953125,8.245010046875Q7.125341953125,8.253273046875,7.164471953125,8.269480046875Q7.203601953125,8.285687046875,7.2388119531249995,8.309216046875Q7.274031953125,8.332745046875,7.303971953125,8.362692046875Q7.3339219531249995,8.392639046875,7.357451953125,8.427853046875Q7.380981953125,8.463067046875,7.397181953125,8.502194046875Q7.413391953125,8.541322046875,7.421651953125,8.582859246875Q7.429921953125,8.624396746875,7.429921953125,8.666748046875Q7.429921953125,8.709099346875,7.421651953125,8.750636846875Q7.413391953125,8.792174046875,7.397181953125,8.831302046875Q7.380981953125,8.870429046875,7.357451953125,8.905643046875Q7.3339219531249995,8.940857046875,7.303971953125,8.970804046875Q7.274031953125,9.000751046875,7.2388119531249995,9.024280046875Q7.203601953125,9.047809046875,7.164471953125,9.064016046875Q7.125341953125,9.080223046875,7.083811953125,9.088486046875Q7.042271953125,9.096748046875,6.999921953125,9.096748046875Q6.9823819531249995,9.096748046875,6.964891953125,9.095319046875L5.368274253125,9.095319046875Z" fill-rule="evenodd" fill="#939599" fill-opacity="1"/></g><g><path d="M5.368274253125,6.428571Q5.350792253125,6.43,5.333251953125,6.43Q5.290900653125,6.43,5.249363153125,6.421738Q5.207825953125,6.413475,5.168697953125,6.397268Q5.129570953125,6.381061,5.094356953125,6.357532Q5.059142953125,6.334003,5.029195953125,6.304056Q4.999248953125,6.274109,4.975719953125,6.238895Q4.952190953125,6.203681,4.935983953125,6.164554Q4.919776953125,6.125426,4.911513953125,6.0838888Q4.903251953125,6.0423513,4.903251953125,6Q4.903251953125,5.9576487,4.911513953125,5.9161112Q4.919776953125,5.874574,4.935983953125,5.835446Q4.952190953125,5.796319,4.975719953125,5.761105Q4.999248953125,5.725891,5.029195953125,5.695944Q5.059142953125,5.665997,5.094356953125,5.642468Q5.129570953125,5.618939,5.168697953125,5.602732Q5.207825953125,5.586525,5.249363153125,5.578262Q5.290900653125,5.57,5.333251953125,5.57Q5.350792253125,5.57,5.368274253125,5.571429L9.631561953125,5.571429Q9.649041953125,5.57,9.666581953125,5.57Q9.708931953125,5.57,9.750471953125,5.578262Q9.792011953125,5.586525,9.831141953125,5.602732Q9.870261953125,5.618939,9.905481953125001,5.642468Q9.940691953125,5.665997,9.970641953125,5.695944Q10.000591953125,5.725891,10.024121953125,5.761105Q10.047641953125,5.796319,10.063851953124999,5.835446Q10.080061953125,5.874574,10.088321953125,5.9161112Q10.096581953125,5.9576487,10.096581953125,6Q10.096581953125,6.0423513,10.088321953125,6.0838888Q10.080061953125,6.125426,10.063851953124999,6.164554Q10.047641953125,6.203681,10.024111953125,6.238895Q10.000591953125,6.274109,9.970641953125,6.304056Q9.940691953125,6.334003,9.905481953125001,6.357532Q9.870261953125,6.381061,9.831141953125,6.397268Q9.792011953125,6.413475,9.750471953125,6.421738Q9.708931953125,6.43,9.666581953125,6.43Q9.649041953125,6.43,9.631561953125,6.428571L5.368274253125,6.428571Z" fill-rule="evenodd" fill="#939599" fill-opacity="1"/></g><g><path d="M5.368274253125,11.761822953125Q5.350792253125,11.763251953125,5.333251953125,11.763251953125Q5.290900653125,11.763251953125,5.249363153125,11.754989953125Q5.207825953125,11.746726953125,5.168697953125,11.730519953125Q5.129570953125,11.714312953125,5.094356953125,11.690783953125Q5.059142953125,11.667254953125,5.029195953125,11.637307953125Q4.999248953125,11.607360953125,4.975719953125,11.572146953125Q4.952190953125,11.536932953125,4.935983953125,11.497805953125Q4.919776953125,11.458677953125,4.911513953125,11.417140753125Q4.903251953125,11.375603253125,4.903251953125,11.333251953125Q4.903251953125,11.290900653125,4.911513953125,11.249363153125Q4.919776953125,11.207825953125,4.935983953125,11.168697953125Q4.952190953125,11.129570953125,4.975719953125,11.094356953125Q4.999248953125,11.059142953125,5.029195953125,11.029195953125Q5.059142953125,10.999248953125,5.094356953125,10.975719953125Q5.129570953125,10.952190953125,5.168697953125,10.935983953125Q5.207825953125,10.919776953125,5.249363153125,10.911513953125Q5.290900653125,10.903251953125,5.333251953125,10.903251953125Q5.350792253125,10.903251953125,5.368274253125,10.904680953125L6.298229953125,10.904680953125Q6.315711953125,10.903251953125,6.333251953125,10.903251953125Q6.375601953125,10.903251953125,6.417141953125,10.911513953125Q6.458681953125,10.919776953125,6.497801953125,10.935983953125Q6.536931953125,10.952190953125,6.572151953125,10.975719953125Q6.607361953125,10.999248953125,6.637311953125,11.029195953125Q6.667251953125,11.059142953125,6.690781953125,11.094356953125Q6.714311953125,11.129570953125,6.730521953125,11.168697953125Q6.746731953125,11.207825953125,6.754991953125,11.249363153125Q6.763251953125,11.290900653125,6.763251953125,11.333251953125Q6.763251953125,11.375603253125,6.754991953125,11.417140753125Q6.746731953125,11.458677953125,6.730521953125,11.497805953125Q6.714311953125,11.536932953125,6.690781953125,11.572146953125Q6.667251953125,11.607360953125,6.637311953125,11.637307953125Q6.607361953125,11.667254953125,6.572151953125,11.690783953125Q6.536931953125,11.714312953125,6.497801953125,11.730519953125Q6.458681953125,11.746726953125,6.417141953125,11.754989953125Q6.375601953125,11.763251953125,6.333251953125,11.763251953125Q6.315711953125,11.763251953125,6.298229953125,11.761822953125L5.368274253125,11.761822953125Z" fill-rule="evenodd" fill="#939599" fill-opacity="1"/></g><g><path d="M13.5652,10.695131953125Q13.5642,10.680871953125,13.5642,10.666581953125Q13.5642,10.624231953125,13.5725,10.582691953125Q13.5807,10.541161953125,13.5969,10.502031953125Q13.6131,10.462901953125,13.6367,10.427691953125Q13.6602,10.392471953125,13.6901,10.362531953125Q13.7201,10.332581953125,13.7553,10.309051953125Q13.7905,10.285521953125,13.8297,10.269311953125Q13.8688,10.253111953125,13.9103,10.244851953125Q13.9519,10.236581953125,13.9942,10.236581953125Q14.0366,10.236581953125,14.0781,10.244851953125Q14.1196,10.253111953125,14.1588,10.269311953125Q14.1979,10.285521953125,14.2331,10.309051953125Q14.2683,10.332581953125,14.2983,10.362531953125Q14.3282,10.392471953125,14.3517,10.427691953125Q14.3753,10.462901953125,14.3915,10.502031953125Q14.4077,10.541161953125,14.4159,10.582691953125Q14.4242,10.624231953125,14.4242,10.666581953125Q14.4242,10.687381953125,14.4222,10.708081953125Q14.4008,12.063151953125,14.2523,12.750651953125Q14.0573,13.653251953125,13.522,14.188551953125Q12.8826,14.827951953125,11.64983,14.993751953125Q10.89523,15.095151953125,8.66667,15.095151953125L7.33333,15.095151953125Q5.10477,15.095151953125,4.35017,14.993751953125Q3.11738,14.827951953125,2.478003,14.188551953125Q1.838625,13.549251953125,1.672881,12.316451953125Q1.571429,11.561851953125,1.571429,9.333251953125L1.571429,6.666581953125Q1.571429,4.438011953125001,1.672881,3.683421953125Q1.838625,2.450631953125,2.478003,1.811254953125Q3.11738,1.171877953125,4.35017,1.006132953125Q5.104760000000001,0.904680953125,7.33333,0.904680953125L8.66667,0.904680953125Q10.89524,0.904680953125,11.64983,1.006132953125Q12.8826,1.171876953125,13.522,1.811254953125Q13.5518,1.841101953125,13.5753,1.8761989531249998Q13.5987,1.911295953125,13.6149,1.950292953125Q13.6311,1.989290953125,13.6393,2.030689953125Q13.6475,2.072089953125,13.6475,2.114300953125Q13.6475,2.156510953125,13.6393,2.197910953125Q13.6311,2.239309953125,13.6149,2.278307953125Q13.5987,2.317304953125,13.5753,2.352401953125Q13.5518,2.3875019531249997,13.522,2.4173419531249998Q13.4921,2.447191953125,13.4571,2.470641953125Q13.422,2.4940919531250003,13.383,2.510251953125Q13.344,2.526401953125,13.3026,2.534641953125Q13.2612,2.542871953125,13.219,2.542871953125Q13.1767,2.542871953125,13.1353,2.534641953125Q13.0939,2.526401953125,13.0549,2.510251953125Q13.0159,2.4940919531250003,12.9808,2.470641953125Q12.9458,2.447191953125,12.9159,2.4173419531249998Q12.4813,1.982781953125,11.53562,1.855632953125Q10.83787,1.761822953125,8.66667,1.761822953125L7.33333,1.761822953125Q5.162129999999999,1.761822953125,4.46438,1.855632953125Q3.5186599999999997,1.982781953125,3.0840899999999998,2.4173519531250003Q2.64953,2.8519119531249997,2.522381,3.797631953125Q2.428571,4.495381953124999,2.428571,6.666581953125L2.428571,9.333251953125Q2.428571,11.504451953125,2.522381,12.202251953125Q2.64953,13.147951953125,3.0840899999999998,13.582451953125Q3.5186599999999997,14.017051953125,4.46438,14.144251953125Q5.162129999999999,14.238051953125,7.33333,14.238051953125L8.66667,14.238051953125Q10.83787,14.238051953125,11.53562,14.144251953125Q12.4813,14.017051953125,12.9159,13.582451953125Q13.2728,13.225651953125,13.4145,12.569651953125Q13.5451,11.964851953125,13.5652,10.695131953125Z" fill-rule="evenodd" fill="#939599" fill-opacity="1"/></g></g></g></svg>