<svg xmlns="http://www.w3.org/2000/svg" xmlns:xlink="http://www.w3.org/1999/xlink" fill="none" version="1.1" width="12" height="12" viewBox="0 0 12 12"><defs><clipPath id="master_svg0_9151_4356"><rect x="0" y="0" width="12" height="12" rx="0"/></clipPath></defs><g clip-path="url(#master_svg0_9151_4356)"><g></g><g><path d="M5,6Q5,6.09825,4.99037,6.19603Q4.98074,6.293810000000001,4.96157,6.39018Q4.9424,6.486549999999999,4.91388,6.58057Q4.88536,6.67459,4.84776,6.76537Q4.81016,6.85614,4.76384,6.9427900000000005Q4.71753,7.029450000000001,4.66294,7.11114Q4.60835,7.19284,4.54602,7.26879Q4.48369,7.34474,4.414210000000001,7.414210000000001Q4.34474,7.48369,4.26879,7.54602Q4.19284,7.60835,4.11114,7.66294Q4.029450000000001,7.71753,3.94279,7.76384Q3.85614,7.81016,3.76537,7.84776Q3.67459,7.88536,3.58057,7.91388Q3.48655,7.9424,3.39018,7.96157Q3.29381,7.98074,3.19603,7.99037Q3.09825,8,3,8Q2.90175,8,2.80397,7.99037Q2.7061900000000003,7.98074,2.60982,7.96157Q2.5134499999999997,7.9424,2.41943,7.91388Q2.3254099999999998,7.88536,2.23463,7.84776Q2.14386,7.81016,2.05721,7.76384Q1.970554,7.71753,1.888859,7.66294Q1.807164,7.60835,1.731213,7.54602Q1.655262,7.48369,1.5857860000000001,7.414210000000001Q1.516311,7.34474,1.453979,7.26879Q1.391648,7.19284,1.337061,7.11114Q1.2824740000000001,7.029450000000001,1.236157,6.9427900000000005Q1.189841,6.85614,1.152241,6.76537Q1.114641,6.67459,1.0861193,6.58057Q1.0575978,6.486549999999999,1.0384294,6.39018Q1.0192611,6.293810000000001,1.00963055,6.19603Q1,6.09825,1,6Q1,5.90175,1.00963055,5.80397Q1.0192611,5.70619,1.0384294,5.60982Q1.0575978,5.51345,1.0861193,5.41943Q1.114641,5.32541,1.152241,5.23463Q1.189841,5.14386,1.236157,5.0572099999999995Q1.2824740000000001,4.970554,1.337061,4.888859Q1.391648,4.807164,1.453979,4.731213Q1.516311,4.6552620000000005,1.5857860000000001,4.585786Q1.655262,4.516311,1.731213,4.453979Q1.807164,4.391648,1.888859,4.337061Q1.970554,4.282474,2.05721,4.236157Q2.14386,4.189841,2.23463,4.152241Q2.3254099999999998,4.114641,2.41943,4.0861193Q2.5134499999999997,4.0575978,2.60982,4.0384294Q2.7061900000000003,4.0192611,2.80397,4.00963055Q2.90175,4,3,4Q3.09825,4,3.19603,4.00963055Q3.29381,4.0192611,3.39018,4.0384294Q3.48655,4.0575978,3.58057,4.0861193Q3.67459,4.114641,3.76537,4.152241Q3.85614,4.189841,3.94279,4.236157Q4.029450000000001,4.282474,4.11114,4.337061Q4.19284,4.391648,4.26879,4.453979Q4.34474,4.516311,4.414210000000001,4.585786Q4.48369,4.6552620000000005,4.54602,4.731213Q4.60835,4.807164,4.66294,4.888859Q4.71753,4.970554,4.76384,5.0572099999999995Q4.81016,5.14386,4.84776,5.23463Q4.88536,5.32541,4.91388,5.41943Q4.9424,5.51345,4.96157,5.60982Q4.98074,5.70619,4.99037,5.80397Q5,5.90175,5,6ZM4,6Q4,5.90151,3.98078,5.80491Q3.96157,5.70831,3.92388,5.61732Q3.88619,5.52632,3.83147,5.4444300000000005Q3.77675,5.36254,3.70711,5.29289Q3.63746,5.22325,3.55557,5.1685300000000005Q3.47368,5.11381,3.38268,5.0761199999999995Q3.29169,5.03843,3.19509,5.01921Q3.09849,5,3,5Q2.90151,5,2.80491,5.01921Q2.70831,5.03843,2.6173200000000003,5.0761199999999995Q2.52632,5.11381,2.44443,5.1685300000000005Q2.36254,5.22325,2.29289,5.29289Q2.22325,5.36254,2.16853,5.4444300000000005Q2.11381,5.52632,2.07612,5.61732Q2.03843,5.70831,2.01921,5.80491Q2,5.90151,2,6Q2,6.09849,2.01921,6.19509Q2.03843,6.29169,2.07612,6.382680000000001Q2.11381,6.47368,2.16853,6.5555699999999995Q2.22325,6.63746,2.29289,6.70711Q2.36254,6.77675,2.44443,6.8314699999999995Q2.52632,6.88619,2.6173200000000003,6.9238800000000005Q2.70831,6.96157,2.80491,6.98078Q2.90151,7,3,7Q3.09849,7,3.19509,6.98078Q3.29169,6.96157,3.38268,6.9238800000000005Q3.47368,6.88619,3.55557,6.8314699999999995Q3.63746,6.77675,3.70711,6.70711Q3.77675,6.63746,3.83147,6.5555699999999995Q3.88619,6.47368,3.92388,6.382680000000001Q3.96157,6.29169,3.98078,6.19509Q4,6.09849,4,6Z" fill="#BEBECE" fill-opacity="1"/></g><g><path d="M11,3Q11,3.09825,10.99037,3.19603Q10.98074,3.29381,10.96157,3.39018Q10.9424,3.48655,10.913879999999999,3.58057Q10.88536,3.67459,10.847760000000001,3.76537Q10.81016,3.85614,10.76384,3.94279Q10.71753,4.029450000000001,10.662939999999999,4.11114Q10.60835,4.19284,10.54602,4.26879Q10.48369,4.34474,10.41421,4.414210000000001Q10.34474,4.48369,10.26879,4.54602Q10.19284,4.60835,10.111139999999999,4.66294Q10.02945,4.71753,9.94279,4.76384Q9.85614,4.81016,9.76537,4.84776Q9.67459,4.88536,9.58057,4.91388Q9.48655,4.9424,9.39018,4.96157Q9.29381,4.98074,9.19603,4.99037Q9.09825,5,9,5Q8.90175,5,8.80397,4.99037Q8.70619,4.98074,8.60982,4.96157Q8.51345,4.9424,8.41943,4.91388Q8.32541,4.88536,8.23463,4.84776Q8.14386,4.81016,8.05721,4.76384Q7.970554,4.71753,7.888859,4.66294Q7.807164,4.60835,7.731213,4.54602Q7.6552620000000005,4.48369,7.585786,4.414210000000001Q7.516311,4.34474,7.453979,4.26879Q7.391648,4.19284,7.337061,4.11114Q7.282474,4.029450000000001,7.236157,3.94279Q7.189841,3.85614,7.152241,3.76537Q7.114641,3.67459,7.0861193,3.58057Q7.0575978,3.48655,7.0384294,3.39018Q7.0192611,3.29381,7.00963055,3.19603Q7,3.09825,7,3Q7,2.90175,7.00963055,2.80397Q7.0192611,2.7061900000000003,7.0384294,2.60982Q7.0575978,2.5134499999999997,7.0861193,2.41943Q7.114641,2.3254099999999998,7.152241,2.23463Q7.189841,2.14386,7.236157,2.05721Q7.282474,1.970554,7.337061,1.888859Q7.391648,1.807164,7.453979,1.731213Q7.516311,1.655262,7.585786,1.5857860000000001Q7.6552620000000005,1.516311,7.731213,1.453979Q7.807164,1.391648,7.888859,1.337061Q7.970554,1.2824740000000001,8.05721,1.236157Q8.14386,1.189841,8.23463,1.152241Q8.32541,1.114641,8.41943,1.0861193Q8.51345,1.0575978,8.60982,1.0384294Q8.70619,1.0192611,8.80397,1.00963055Q8.90175,1,9,1Q9.09825,1,9.19603,1.00963055Q9.29381,1.0192611,9.39018,1.0384294Q9.48655,1.0575978,9.58057,1.0861193Q9.67459,1.114641,9.76537,1.152241Q9.85614,1.189841,9.94279,1.236157Q10.02945,1.2824740000000001,10.111139999999999,1.337061Q10.19284,1.391648,10.26879,1.453979Q10.34474,1.516311,10.41421,1.5857860000000001Q10.48369,1.655262,10.54602,1.731213Q10.60835,1.807164,10.662939999999999,1.888859Q10.71753,1.970554,10.76384,2.05721Q10.81016,2.14386,10.847760000000001,2.23463Q10.88536,2.3254099999999998,10.913879999999999,2.41943Q10.9424,2.5134499999999997,10.96157,2.60982Q10.98074,2.7061900000000003,10.99037,2.80397Q11,2.90175,11,3ZM10,3Q10,2.90151,9.98078,2.80491Q9.96157,2.70831,9.92388,2.6173200000000003Q9.88619,2.52632,9.83147,2.44443Q9.77675,2.36254,9.70711,2.29289Q9.63746,2.22325,9.55557,2.16853Q9.47368,2.11381,9.38268,2.07612Q9.29169,2.03843,9.19509,2.01921Q9.09849,2,9,2Q8.90151,2,8.80491,2.01921Q8.70831,2.03843,8.61732,2.07612Q8.52632,2.11381,8.44443,2.16853Q8.36254,2.22325,8.29289,2.29289Q8.22325,2.36254,8.16853,2.44443Q8.11381,2.52632,8.07612,2.6173200000000003Q8.03843,2.70831,8.01921,2.80491Q8,2.90151,8,3Q8,3.09849,8.01921,3.19509Q8.03843,3.29169,8.07612,3.38268Q8.11381,3.47368,8.16853,3.55557Q8.22325,3.63746,8.29289,3.70711Q8.36254,3.77675,8.44443,3.83147Q8.52632,3.88619,8.61732,3.92388Q8.70831,3.96157,8.80491,3.98078Q8.90151,4,9,4Q9.09849,4,9.19509,3.98078Q9.29169,3.96157,9.38268,3.92388Q9.47368,3.88619,9.55557,3.83147Q9.63746,3.77675,9.70711,3.70711Q9.77675,3.63746,9.83147,3.55557Q9.88619,3.47368,9.92388,3.38268Q9.96157,3.29169,9.98078,3.19509Q10,3.09849,10,3Z" fill="#BEBECE" fill-opacity="1"/></g><g><path d="M11,9Q11,9.09825,10.99037,9.19603Q10.98074,9.29381,10.96157,9.39018Q10.9424,9.48655,10.913879999999999,9.58057Q10.88536,9.67459,10.847760000000001,9.76537Q10.81016,9.85614,10.76384,9.94279Q10.71753,10.02945,10.662939999999999,10.111139999999999Q10.60835,10.19284,10.54602,10.26879Q10.48369,10.34474,10.41421,10.41421Q10.34474,10.48369,10.26879,10.54602Q10.19284,10.60835,10.111139999999999,10.662939999999999Q10.02945,10.71753,9.94279,10.76384Q9.85614,10.81016,9.76537,10.847760000000001Q9.67459,10.88536,9.58057,10.913879999999999Q9.48655,10.9424,9.39018,10.96157Q9.29381,10.98074,9.19603,10.99037Q9.09825,11,9,11Q8.90175,11,8.80397,10.99037Q8.70619,10.98074,8.60982,10.96157Q8.51345,10.9424,8.41943,10.913879999999999Q8.32541,10.88536,8.23463,10.847760000000001Q8.14386,10.81016,8.05721,10.76384Q7.970554,10.71753,7.888859,10.662939999999999Q7.807164,10.60835,7.731213,10.54602Q7.6552620000000005,10.48369,7.585786,10.41421Q7.516311,10.34474,7.453979,10.26879Q7.391648,10.19284,7.337061,10.111139999999999Q7.282474,10.02945,7.236157,9.94279Q7.189841,9.85614,7.152241,9.76537Q7.114641,9.67459,7.0861193,9.58057Q7.0575978,9.48655,7.0384294,9.39018Q7.0192611,9.29381,7.00963055,9.19603Q7,9.09825,7,9Q7,8.90175,7.00963055,8.80397Q7.0192611,8.70619,7.0384294,8.60982Q7.0575978,8.51345,7.0861193,8.41943Q7.114641,8.32541,7.152241,8.23463Q7.189841,8.14386,7.236157,8.05721Q7.282474,7.970554,7.337061,7.888859Q7.391648,7.807164,7.453979,7.731213Q7.516311,7.6552620000000005,7.585786,7.585786Q7.6552620000000005,7.516311,7.731213,7.453979Q7.807164,7.391648,7.888859,7.337061Q7.970554,7.282474,8.05721,7.236157Q8.14386,7.189841,8.23463,7.152241Q8.32541,7.114641,8.41943,7.0861193Q8.51345,7.0575978,8.60982,7.0384294Q8.70619,7.0192611,8.80397,7.00963055Q8.90175,7,9,7Q9.09825,7,9.19603,7.00963055Q9.29381,7.0192611,9.39018,7.0384294Q9.48655,7.0575978,9.58057,7.0861193Q9.67459,7.114641,9.76537,7.152241Q9.85614,7.189841,9.94279,7.236157Q10.02945,7.282474,10.111139999999999,7.337061Q10.19284,7.391648,10.26879,7.453979Q10.34474,7.516311,10.41421,7.585786Q10.48369,7.6552620000000005,10.54602,7.731213Q10.60835,7.807164,10.662939999999999,7.888859Q10.71753,7.970554,10.76384,8.05721Q10.81016,8.14386,10.847760000000001,8.23463Q10.88536,8.32541,10.913879999999999,8.41943Q10.9424,8.51345,10.96157,8.60982Q10.98074,8.70619,10.99037,8.80397Q11,8.90175,11,9ZM10,9Q10,8.90151,9.98078,8.80491Q9.96157,8.70831,9.92388,8.61732Q9.88619,8.52632,9.83147,8.44443Q9.77675,8.36254,9.70711,8.29289Q9.63746,8.22325,9.55557,8.16853Q9.47368,8.11381,9.38268,8.07612Q9.29169,8.03843,9.19509,8.01921Q9.09849,8,9,8Q8.90151,8,8.80491,8.01921Q8.70831,8.03843,8.61732,8.07612Q8.52632,8.11381,8.44443,8.16853Q8.36254,8.22325,8.29289,8.29289Q8.22325,8.36254,8.16853,8.44443Q8.11381,8.52632,8.07612,8.61732Q8.03843,8.70831,8.01921,8.80491Q8,8.90151,8,9Q8,9.09849,8.01921,9.19509Q8.03843,9.29169,8.07612,9.38268Q8.11381,9.47368,8.16853,9.55557Q8.22325,9.63746,8.29289,9.70711Q8.36254,9.77675,8.44443,9.83147Q8.52632,9.88619,8.61732,9.92388Q8.70831,9.96157,8.80491,9.98078Q8.90151,10,9,10Q9.09849,10,9.19509,9.98078Q9.29169,9.96157,9.38268,9.92388Q9.47368,9.88619,9.55557,9.83147Q9.63746,9.77675,9.70711,9.70711Q9.77675,9.63746,9.83147,9.55557Q9.88619,9.47368,9.92388,9.38268Q9.96157,9.29169,9.98078,9.19509Q10,9.09849,10,9Z" fill="#BEBECE" fill-opacity="1"/></g><g transform="matrix(0.866025447845459,-0.5000001192092896,0.5000001192092896,0.866025447845459,-2.147099217705488,2.9868123463893426)"><path d="M7.81812798400879,6.199977117401123L4.470014384008789,5.999171117401123L4.529882584008789,5.000965117401123L7.87799798400879,5.201771117401123L7.81812798400879,6.199977117401123Z" fill-rule="evenodd" fill="#BEBECE" fill-opacity="1"/></g><g transform="matrix(0.866025447845459,0.5000001192092896,0.5000001192092896,-0.866025447845459,-2.8971552980360116,10.812326687407506)"><path d="M7.817921893768311,7.700197724456787L4.47002419376831,7.499178724456787L4.529959593768311,6.5009767244567875L7.87786189376831,6.701995724456787L7.817921893768311,7.700197724456787Z" fill-rule="evenodd" fill="#BEBECE" fill-opacity="1"/></g></g></svg>